HIERARCHY
ROOT Hips
{
    OFFSET 0.000000 0.000000 0.000000
    CHANNELS 6 Xposition Yposition Zposition Zrotation Xrotation Yrotation
    JOINT Spine
    {
        OFFSET -0.000000 14.517291 0.000000
        CHANNELS 3 Zrotation Xrotation Yrotation
        JOINT Spine1
        {
            OFFSET -0.000000 37.558300 0.000000
            CHANNELS 3 Zrotation Xrotation Yrotation
            JOINT Neck
            {
                OFFSET -0.000000 37.404057 3.400369
                CHANNELS 3 Zrotation Xrotation Yrotation
                JOINT Head
                {
                    OFFSET -0.000000 24.785618 -3.540803
                    CHANNELS 3 Zrotation Xrotation Yrotation
                    End Site
                    {
                        OFFSET -0.000000 35.408028 0.000000
                    }
                }
            }
            JOINT LeftShoulder
            {
                OFFSET 6.992933 33.973492 -0.192664
                CHANNELS 3 Zrotation Xrotation Yrotation
                JOINT LeftArm
                {
                    OFFSET 21.527611 0.000000 0.000000
                    CHANNELS 3 Zrotation Xrotation Yrotation
                    JOINT LeftForeArm
                    {
                        OFFSET 56.353916 0.000000 0.000000
                        CHANNELS 3 Zrotation Xrotation Yrotation
                        JOINT LeftHand
                        {
                            OFFSET 47.774071 0.000000 0.000000
                            CHANNELS 3 Zrotation Xrotation Yrotation
                            End Site
                            {
                                OFFSET 26.556021 0.000000 0.000000
                            }
                        }
                    }
                }
            }
            JOINT RightShoulder
            {
                OFFSET -7.065357 33.973492 -0.192664
                CHANNELS 3 Zrotation Xrotation Yrotation
                JOINT RightArm
                {
                    OFFSET -21.527611 0.000000 0.000000
                    CHANNELS 3 Zrotation Xrotation Yrotation
                    JOINT RightForeArm
                    {
                        OFFSET -56.353916 0.000000 0.000000
                        CHANNELS 3 Zrotation Xrotation Yrotation
                        JOINT RightHand
                        {
                            OFFSET -47.774071 0.000000 0.000000
                            CHANNELS 3 Zrotation Xrotation Yrotation
                            End Site
                            {
                                OFFSET -26.556021 0.000000 0.000000
                            }
                        }
                    }
                }
            }
        }
    }
    JOINT LeftUpLeg
    {
        OFFSET 17.704014 0.000000 0.000000
        CHANNELS 3 Zrotation Xrotation Yrotation
        JOINT LeftLeg
        {
            OFFSET -0.000000 -81.181816 0.000000
            CHANNELS 3 Zrotation Xrotation Yrotation
            JOINT LeftFoot
            {
                OFFSET -0.000000 -62.821102 0.000000
                CHANNELS 3 Zrotation Xrotation Yrotation
                JOINT LeftToeBase
                {
                    OFFSET -0.000000 -11.507608 26.556021
                    CHANNELS 3 Zrotation Xrotation Yrotation
                    End Site
                    {
                        OFFSET -0.000000 0.000000 7.081605
                    }
                }
            }
        }
    }
    JOINT RightUpLeg
    {
        OFFSET -17.704014 0.000000 0.000000
        CHANNELS 3 Zrotation Xrotation Yrotation
        JOINT RightLeg
        {
            OFFSET -0.000000 -81.181816 0.000000
            CHANNELS 3 Zrotation Xrotation Yrotation
            JOINT RightFoot
            {
                OFFSET -0.000000 -62.821102 0.000000
                CHANNELS 3 Zrotation Xrotation Yrotation
                JOINT RightToeBase
                {
                    OFFSET -0.000000 -11.507608 26.556021
                    CHANNELS 3 Zrotation Xrotation Yrotation
                    End Site
                    {
                        OFFSET -0.000000 0.000000 7.081605
                    }
                }
            }
        }
    }
}
MOTION
Frames:    10
Frame Time:    0.008333
-33.792065    168.619324    -24.677017    -10.265412    -22.638115    49.913441    3.489590    5.676087    -3.301772    4.819248    5.441827    -1.273650    23.185291    -0.719995    -0.140588    -3.238259    -5.058744    -4.390885    10.484964    7.889582    -21.913656    -34.354992    18.561232    -53.038300    -1.853230    -29.487524    -108.790504    -7.568570    -31.084341    -11.153113    10.383292    1.318369    -6.639673    23.792788    -2.519307    35.416016    -24.865442    -9.715624    56.598270    -4.427011    2.604444    32.716961    28.115164    -7.298860    7.569182    -4.355258    29.866108    -16.981144    6.704977    -12.915123    37.938633    0.000000    0.000000    0.000000    -88.986267    -43.686806    -51.634632    6.833674    18.855713    -5.250020    14.149272    21.514015    -20.559357    0.000000    0.000000    0.000000    
-33.718689    168.594818    -24.691132    -10.217052    -22.577543    49.835796    3.467714    5.645727    -3.299868    4.805852    5.438239    -1.272842    23.141012    -0.746896    -0.124066    -3.181975    -5.015923    -4.360554    10.444425    7.863668    -21.902115    -34.318626    18.578163    -53.006184    -1.844088    -29.511847    -108.787369    -7.562951    -31.097992    -11.145812    10.344358    1.301565    -6.619152    23.775030    -2.504552    35.437130    -24.833464    -9.674170    56.639297    -4.430435    2.637322    32.755856    27.916248    -7.251602    7.245318    -4.336038    29.880568    -17.061644    6.938469    -12.988817    37.822441    0.000000    0.000000    0.000000    -89.062111    -43.745323    -51.682735    6.829865    18.820404    -5.235760    14.125072    21.515398    -20.555902    0.000000    0.000000    0.000000    
-33.651005    168.571701    -24.710421    -10.178563    -22.512823    49.759010    3.454631    5.609076    -3.302510    4.781213    5.439782    -1.273196    23.077263    -0.751990    -0.115714    -3.089380    -5.015444    -4.325444    10.422218    7.843551    -21.893391    -34.296177    18.560705    -52.977207    -1.854812    -29.513220    -108.790634    -7.486595    -31.117870    -11.161974    10.300654    1.305733    -6.592779    23.795536    -2.563187    35.461754    -24.749073    -9.602946    56.726269    -4.442731    2.683099    32.741463    27.725246    -7.217683    6.866954    -4.285477    29.885889    -17.304813    7.040028    -13.076098    37.702137    0.000000    0.000000    0.000000    -89.137123    -43.794781    -51.750317    6.823893    18.776897    -5.207472    14.107027    21.503210    -20.567978    0.000000    0.000000    0.000000    
-33.582424    168.548172    -24.741308    -10.133997    -22.434076    49.688023    3.418176    5.562942    -3.315384    4.778816    5.453857    -1.278942    23.001431    -0.716586    -0.118451    -3.007419    -5.068451    -4.294858    10.368938    7.796577    -21.911787    -34.271065    18.587221    -52.896729    -2.203540    -29.568119    -108.933678    -7.563181    -31.576265    -11.376119    10.231995    1.312856    -6.545064    23.815329    -2.576671    35.479027    -24.711790    -9.587969    56.777672    -4.421191    2.698531    32.727684    27.526054    -7.197969    6.423559    -4.282558    29.909817    -17.597609    7.216463    -13.133368    37.695126    0.000000    0.000000    0.000000    -89.222855    -43.846474    -51.820740    6.801285    18.724442    -5.203544    14.072381    21.504049    -20.565357    0.000000    0.000000    0.000000    
-33.470070    168.552582    -24.719688    -10.061171    -22.495157    49.653366    3.500352    5.575924    -3.345330    4.726587    5.516977    -1.287650    22.982862    -0.710526    -0.115768    -2.979521    -5.097686    -4.283362    10.354164    7.783587    -21.896618    -34.224018    18.605776    -52.877460    -2.173967    -29.618824    -108.909401    -7.634370    -31.580971    -11.419099    10.210197    1.611729    -6.754975    23.842571    -2.681859    35.905437    -24.755873    -9.593794    56.647213    -4.420814    2.677402    32.804150    27.407316    -7.064468    5.909955    -4.265269    29.926937    -17.928211    7.386655    -13.250622    37.693645    0.000000    0.000000    0.000000    -89.084839    -43.825397    -51.718494    6.826666    18.662088    -5.160670    14.057711    21.332867    -20.592567    0.000000    0.000000    0.000000    
-33.396168    168.536224    -24.760227    -10.013034    -22.427416    49.580906    3.517803    5.565441    -3.347354    4.645799    5.512292    -1.284068    22.957611    -0.722697    -0.111508    -2.931839    -5.113837    -4.268912    10.339625    7.766007    -21.878471    -34.184605    18.600666    -52.869167    -2.182220    -29.626108    -108.909607    -7.638783    -31.596851    -11.432077    10.185348    1.606905    -6.740479    23.862806    -2.689614    35.921951    -24.718616    -9.589770    56.709339    -4.409708    2.680154    32.829212    27.177643    -7.032074    5.385925    -4.281618    30.036221    -18.125364    7.566761    -13.477854    37.748135    0.000000    0.000000    0.000000    -89.135529    -43.855175    -51.774223    6.817482    18.574703    -5.171052    14.020292    21.306301    -20.586842    0.000000    0.000000    0.000000    
-33.316799    168.529449    -24.793383    -9.958681    -22.386713    49.514809    3.544611    5.569487    -3.343986    4.565045    5.521184    -1.278899    22.988701    -0.737050    -0.107481    -2.954716    -5.145975    -4.277750    10.349745    7.759101    -21.872799    -34.151073    18.585920    -52.873924    -2.196002    -29.630970    -108.907021    -7.665106    -31.611979    -11.496613    10.188537    1.584983    -6.729190    23.853802    -2.716947    35.927845    -24.641058    -9.571022    56.796890    -4.403452    2.683660    32.776676    26.979490    -6.972468    4.817004    -4.305867    30.044361    -18.331631    7.708053    -13.610250    37.706356    0.000000    0.000000    0.000000    -89.138428    -43.875793    -51.828556    6.800516    18.485849    -5.192582    13.995958    21.257828    -20.542006    0.000000    0.000000    0.000000    
-33.229095    168.521759    -24.832180    -9.884966    -22.353914    49.441883    3.569239    5.597719    -3.327874    4.488630    5.530324    -1.269538    23.001364    -0.748277    -0.109589    -2.974454    -5.189210    -4.289036    10.353477    7.755762    -21.874510    -34.121288    18.577219    -52.884457    -2.157444    -29.667822    -108.879082    -7.746665    -31.591932    -11.527118    10.176632    1.564783    -6.733279    23.845398    -2.720748    35.947563    -24.600203    -9.566534    56.847366    -4.437181    2.668842    32.787640    26.763975    -6.887169    4.247363    -4.314245    30.062687    -18.520323    7.805893    -13.777243    37.695461    0.000000    0.000000    0.000000    -89.132050    -43.900856    -51.864014    6.787107    18.402081    -5.217291    13.987944    21.193172    -20.512337    0.000000    0.000000    0.000000    
-33.136795    168.525162    -24.862968    -9.810762    -22.356379    49.359550    3.615260    5.647012    -3.314853    4.417898    5.547662    -1.261292    23.014692    -0.747109    -0.100235    -3.003364    -5.246780    -4.288081    10.344635    7.750246    -21.859276    -34.119774    18.552656    -52.879848    -2.176819    -29.634260    -108.889572    -7.711435    -31.586622    -11.509546    10.160999    1.565153    -6.724590    23.857782    -2.795601    35.973320    -24.514227    -9.512195    56.932247    -4.463416    2.691942    32.768208    26.574951    -6.787813    3.680484    -4.321626    30.083443    -18.667416    7.876515    -13.904033    37.643070    0.000000    0.000000    0.000000    -89.056885    -43.926250    -51.896267    6.769188    18.302986    -5.257331    13.913039    21.133818    -20.416851    0.000000    0.000000    0.000000    
-33.050453    168.521851    -24.906139    -9.752769    -22.345076    49.246521    3.657928    5.687214    -3.280266    4.353120    5.563692    -1.246099    23.024216    -0.747674    -0.086565    -3.039607    -5.312396    -4.283988    10.340216    7.744666    -21.850649    -34.138359    18.500160    -52.868671    -2.211072    -29.561834    -108.899841    -7.679265    -31.559772    -11.511593    10.141543    1.548806    -6.721265    23.843496    -2.808826    36.001495    -24.482464    -9.505649    56.969238    -4.488704    2.683437    32.765007    26.401974    -6.687822    3.096772    -4.377550    30.089479    -18.747471    7.929748    -14.033248    37.532112    0.000000    0.000000    0.000000    -89.000168    -43.982948    -51.979622    6.721756    18.206461    -5.289678    13.907648    21.076559    -20.358315    0.000000    0.000000    0.000000    
